<svg version="1.2" xmlns="http://www.w3.org/2000/svg" viewBox="0 0 600 200" width="600" height="200">
	<title>logo</title>
	<style>
		.s0 { fill: #ff9900 } 
		.s1 { fill: #ffffff } 
	</style>
	<path id="path1" class="s0" d="m366.5 147.2c-32.3 23.8-79.2 36.4-119.5 36.4-56.5 0-107.4-20.8-145.9-55.6-3-2.7-0.3-6.4 3.3-4.3 41.6 24.2 92.9 38.7 146 38.7 35.8 0 75.2-7.4 111.4-22.8 5.4-2.3 10 3.6 4.7 7.6zm13.4-15.4c-4.1-5.2-27.3-2.5-37.7-1.2-3.2 0.4-3.7-2.4-0.8-4.4 18.5-12.9 48.8-9.2 52.3-4.9 3.5 4.4-0.9 34.7-18.3 49.2-2.6 2.2-5.2 1.1-4-1.9 3.9-9.7 12.6-31.5 8.5-36.8z"/>
	<path id="path2" fill-rule="evenodd" class="s1" d="m342.9 34.6v-12.6c0-1.9 1.5-3.2 3.2-3.2h56.6c1.8 0 3.2 1.3 3.2 3.2v10.8c0 1.8-1.5 4.2-4.2 7.9l-29.3 41.8c10.9-0.3 22.4 1.4 32.2 6.9 2.3 1.3 2.9 3.1 3 4.9v13.5c0 1.8-2 4-4.1 2.9-17.4-9.1-40.5-10.1-59.8 0.1-1.9 1-4-1.1-4-2.9v-12.8c0-2.1 0-5.6 2.1-8.7l33.9-48.6h-29.5c-1.8 0-3.3-1.3-3.3-3.2zm-206.3 78.7h-17.2c-1.6-0.1-2.9-1.3-3.1-2.9v-88.2c0-1.7 1.5-3.1 3.3-3.1h16.1c1.7 0 3 1.3 3.1 2.9v11.5h0.3c4.2-11.1 12.1-16.3 22.7-16.3 10.8 0 17.5 5.2 22.3 16.3 4.2-11.1 13.6-16.3 23.8-16.3 7.2 0 15.1 3 19.9 9.6 5.4 7.5 4.3 18.2 4.3 27.7v55.6c0 1.8-1.5 3.2-3.3 3.2h-17.2c-1.7-0.1-3.1-1.5-3.1-3.2v-46.7c0-3.7 0.4-13-0.5-16.5-1.3-6-5.1-7.6-10.1-7.6-4.1 0-8.5 2.8-10.3 7.2-1.7 4.5-1.6 11.9-1.6 16.9v46.7c0 1.8-1.4 3.2-3.3 3.2h-17.2c-1.7-0.1-3.1-1.5-3.1-3.2v-46.7c0-9.8 1.6-24.3-10.6-24.3-12.4 0-11.9 14.1-11.9 24.3v46.7c0 1.8-1.4 3.2-3.3 3.2zm318-96.1c25.6 0 39.4 21.9 39.4 49.7 0 26.9-15.3 48.3-39.4 48.3-25 0-38.7-21.9-38.7-49.2 0-27.5 13.8-48.8 38.7-48.8zm0.2 18c-12.7 0-13.5 17.3-13.5 28 0 10.8-0.2 33.8 13.3 33.8 13.4 0 14-18.6 14-29.9 0-7.4-0.3-16.3-2.6-23.4-1.9-6.1-5.8-8.5-11.2-8.5zm72.3 78.1h-17.1c-1.8-0.1-3.1-1.5-3.1-3.2l-0.1-88.2c0.2-1.6 1.6-2.8 3.3-2.8h16c1.5 0 2.7 1 3.1 2.4v13.5h0.3c4.8-12.1 11.5-17.8 23.4-17.8 7.7 0 15.3 2.8 20.1 10.4 4.5 7 4.5 18.9 4.5 27.4v55.5c-0.2 1.6-1.6 2.8-3.3 2.8h-17.3c-1.5-0.1-2.8-1.3-3-2.8v-47.9c0-9.6 1.1-23.7-10.8-23.7-4.2 0-8 2.8-9.9 7.1-2.4 5.3-2.8 10.7-2.8 16.6v47.5c0 1.8-1.5 3.2-3.3 3.2zm-211.9-0.2c-1.2 1-2.8 1.1-4.1 0.4-5.7-4.7-6.7-6.9-9.9-11.5-9.4 9.7-16.1 12.5-28.3 12.5-14.5 0-25.8-8.9-25.8-26.7 0-14 7.6-23.5 18.4-28.1 9.3-4.1 22.4-4.9 32.3-6v-2.2c0-4.1 0.4-8.9-2-12.5-2.2-3.1-6.2-4.4-9.7-4.4-6.6 0-12.4 3.3-13.8 10.3-0.3 1.5-1.5 3.1-3 3.1l-16.7-1.8c-1.4-0.3-3-1.4-2.6-3.6 3.9-20.2 22.1-26.3 38.5-26.3 8.4 0 19.3 2.3 25.9 8.6 8.4 7.8 7.6 18.2 7.6 29.6v26.7c0 8.1 3.3 11.6 6.5 16 1.1 1.5 1.3 3.4-0.1 4.5-3.5 2.9-9.7 8.4-13.2 11.4 0 0 0 0 0 0zm-17.4-41.9v-3.7c-12.4 0-25.5 2.6-25.5 17.3 0 7.4 3.8 12.4 10.4 12.4 4.9 0 9.2-2.9 11.9-7.8 3.4-5.9 3.2-11.5 3.2-18.2zm-208.2 41.9c-1.1 1-2.8 1.1-4 0.4-5.8-4.7-6.8-6.9-9.9-11.5-9.5 9.7-16.1 12.5-28.4 12.5-14.5 0-25.7-8.9-25.7-26.7 0-14 7.5-23.5 18.3-28.1 9.4-4.1 22.4-4.9 32.4-6v-2.2c0-4.1 0.3-8.9-2.1-12.5-2.1-3.1-6.1-4.4-9.7-4.4-6.5 0-12.4 3.3-13.8 10.3-0.3 1.5-1.4 3.1-3 3.1l-16.7-1.8c-1.4-0.3-2.9-1.4-2.6-3.6 3.9-20.2 22.2-26.3 38.5-26.3 8.4 0 19.3 2.3 25.9 8.6 8.4 7.8 7.6 18.2 7.6 29.6v26.7c0 8.1 3.4 11.6 6.5 16 1.1 1.5 1.4 3.4 0 4.5-3.6 2.9-9.8 8.4-13.2 11.4 0 0-0.1 0-0.1 0zm-17.3-41.9v-3.7c-12.5 0-25.6 2.6-25.6 17.3 0 7.4 3.8 12.4 10.4 12.4 4.9 0 9.2-2.9 11.9-7.8 3.4-5.9 3.3-11.5 3.3-18.2z"/>
</svg>